HIERARCHY
ROOT Hips
{
	OFFSET 0.00000 0.00000 0.00000
	CHANNELS 6 Xposition Yposition Zposition Zrotation Yrotation Xrotation 
	JOINT LHipJoint
	{
		OFFSET 0 0 0
		CHANNELS 3 Zrotation Yrotation Xrotation
		JOINT LeftUpLeg
		{
			OFFSET 1.24777 -1.64261 0.71711
			CHANNELS 3 Zrotation Yrotation Xrotation
			JOINT LeftLeg
			{
				OFFSET 2.49329 -6.85026 0.00000
				CHANNELS 3 Zrotation Yrotation Xrotation
				JOINT LeftFoot
				{
					OFFSET 2.36770 -6.50520 0.00000
					CHANNELS 3 Zrotation Yrotation Xrotation
					JOINT LeftToeBase
					{
						OFFSET 0.14820 -0.40718 2.21395
						CHANNELS 3 Zrotation Yrotation Xrotation
						End Site
						{
							OFFSET 0.00000 -0.00000 1.13491
						}
					}
				}
			}
		}
	}
	JOINT RHipJoint
	{
		OFFSET 0 0 0
		CHANNELS 3 Zrotation Yrotation Xrotation
		JOINT RightUpLeg
		{
			OFFSET -1.18320 -1.64261 0.71711
			CHANNELS 3 Zrotation Yrotation Xrotation
			JOINT RightLeg
			{
				OFFSET -2.46559 -6.77417 0.00000
				CHANNELS 3 Zrotation Yrotation Xrotation
				JOINT RightFoot
				{
					OFFSET -2.38450 -6.55136 0.00000
					CHANNELS 3 Zrotation Yrotation Xrotation
					JOINT RightToeBase
					{
						OFFSET -0.17454 -0.47954 2.02925
						CHANNELS 3 Zrotation Yrotation Xrotation
						End Site
						{
							OFFSET -0.00000 -0.00000 1.05076
						}
					}
				}
			}
		}
	}
	JOINT LowerBack
	{
		OFFSET 0 0 0
		CHANNELS 3 Zrotation Yrotation Xrotation
		JOINT Spine
		{
			OFFSET -0.02305 1.98660 0.00319
			CHANNELS 3 Zrotation Yrotation Xrotation
			JOINT Spine1
			{
				OFFSET -0.00718 1.99033 -0.00533
				CHANNELS 3 Zrotation Yrotation Xrotation
				JOINT Neck
				{
					OFFSET 0 0 0
					CHANNELS 3 Zrotation Yrotation Xrotation
					JOINT Neck1
					{
						OFFSET 0.00095 1.61015 0.10698
						CHANNELS 3 Zrotation Yrotation Xrotation
						JOINT Head
						{
							OFFSET -0.01060 1.59924 0.01317
							CHANNELS 3 Zrotation Yrotation Xrotation
							End Site
							{
								OFFSET -0.00458 1.63304 -0.00592
							}
						}
					}
				}
				JOINT LeftShoulder
				{
					OFFSET 0 0 0
					CHANNELS 3 Zrotation Yrotation Xrotation
					JOINT LeftArm
					{
						OFFSET 3.05381 1.47088 -0.01697
						CHANNELS 3 Zrotation Yrotation Xrotation
						JOINT LeftForeArm
						{
							OFFSET 4.25106 -0.00000 0.00000
							CHANNELS 3 Zrotation Yrotation Xrotation
							JOINT LeftHand
							{
								OFFSET 3.27592 -0.00000 0.00000
								CHANNELS 3 Zrotation Yrotation Xrotation
								JOINT LeftFingerBase
								{
									OFFSET 0 0 0
									CHANNELS 3 Zrotation Yrotation Xrotation
									JOINT LeftHandIndex1
									{
										OFFSET 0.65781 -0.00000 0.00000
										CHANNELS 3 Zrotation Yrotation Xrotation
										End Site
										{
											OFFSET 0.53034 -0.00000 0.00000
										}
									}
								}
								JOINT LThumb
								{
									OFFSET 0 0 0
									CHANNELS 3 Zrotation Yrotation Xrotation
									End Site
									{
										OFFSET 0.53844 -0.00000 0.53844
									}
								}
							}
						}
					}
				}
				JOINT RightShoulder
				{
					OFFSET 0 0 0
					CHANNELS 3 Zrotation Yrotation Xrotation
					JOINT RightArm
					{
						OFFSET -2.83695 1.31619 -0.22674
						CHANNELS 3 Zrotation Yrotation Xrotation
						JOINT RightForeArm
						{
							OFFSET -4.46073 -0.00000 0.00000
							CHANNELS 3 Zrotation Yrotation Xrotation
							JOINT RightHand
							{
								OFFSET -3.44416 -0.00000 0.00000
								CHANNELS 3 Zrotation Yrotation Xrotation
								JOINT RightFingerBase
								{
									OFFSET 0 0 0
									CHANNELS 3 Zrotation Yrotation Xrotation
									JOINT RightHandIndex1
									{
										OFFSET -0.61651 -0.00000 0.00000
										CHANNELS 3 Zrotation Yrotation Xrotation
										End Site
										{
											OFFSET -0.49705 -0.00000 0.00000
										}
									}
								}
								JOINT RThumb
								{
									OFFSET 0 0 0
									CHANNELS 3 Zrotation Yrotation Xrotation
									End Site
									{
										OFFSET -0.50464 -0.00000 0.50464
									}
								}
							}
						}
					}
				}
			}
		}
	}
}
MOTION
Frames: 6
Frame Time: 0.02
0.00 0.00 0.00 -177.2810 -18.5917 -178.2610 0.0000 0.0000 0.0000 -4.6428 -21.4188 -19.7378 3.6825 11.7254 34.7674 -5.1402 -40.4224 -3.1810 1.3385 7.3255 20.6833 0.0000 0.0000 0.0000 10.3555 19.1910 -11.0497 -9.0802 -16.8590 56.3669 2.0207 27.7563 25.5711 -2.8080 -10.3775 30.2080 -4.1543 -2.9093 -0.3251 0.5351 -3.8535 1.1526 2.7936 -1.9853 1.6780 -4.0479 -9.5561 -7.9781 7.0441 -15.0463 18.4624 1.4504 -7.2323 7.8574 -0.0000 -0.0000 0.0000 -89.9133 -8.4434 76.7353 37.0580 -46.2270 -16.2819 -0.0000 0.0000 -8.6609 -4.0483 14.3545 -1.0052 -7.1250 0.0000 -0.0000 -28.0068 42.4496 1.9297 -0.0000 -0.0000 0.0000 86.1441 -36.2349 35.0155 -41.9925 49.2071 -19.9348 0.0000 0.0000 4.5185 -16.6911 -15.6033 4.6110 7.1250 -0.0000 -0.0000 10.3221 -45.9743 -0.2509
0.00 0.00 0.00 -175.9930 -28.0888 -181.0390 0.0000 0.0000 0.0000 -0.7904 -25.9478 -22.4270 3.2102 11.0277 32.3734 -6.8247 -42.2703 5.5202 0.9842 6.3146 17.6999 0.0000 0.0000 0.0000 19.0223 18.4716 -4.5186 -7.5840 -15.8046 51.0500 2.4686 26.5019 10.6691 -4.6460 -12.9737 39.2701 -3.2503 -0.2029 -0.8541 -0.4225 -0.2255 1.2412 1.3823 -0.1599 1.7631 -1.7401 -6.8880 -8.7919 6.5884 -11.7198 20.5337 1.2425 -5.4571 8.3259 -0.0000 -0.0000 0.0000 -86.5053 -5.8192 68.0096 41.7129 -49.0526 -19.7234 -0.0000 0.0000 -8.7006 1.8946 10.9173 0.3590 -7.1250 0.0000 -0.0000 -21.8427 39.8998 2.9075 -0.0000 -0.0000 0.0000 69.5550 -31.1349 60.2721 -42.1340 49.2846 -20.0420 0.0000 0.0000 11.3649 -4.6950 -13.1489 1.0703 7.1250 -0.0000 -0.0000 20.2112 -42.2423 1.4399
0.00 0.00 0.00 -174.2530 -32.2730 -181.5120 0.0000 0.0000 0.0000 2.2843 -26.4715 -26.0130 2.6403 10.0887 29.2644 -4.7343 -36.6518 3.6386 0.0191 0.8914 2.4501 0.0000 0.0000 0.0000 22.3758 12.1041 -6.1413 -6.4406 -14.8421 46.7252 0.8055 21.8682 -8.3498 -1.5493 -7.8564 22.2788 -1.0775 2.2429 -1.4075 -0.8577 3.0177 1.0835 -0.1852 1.4929 1.8891 -0.5271 -5.6927 -8.5951 6.8573 -10.1501 20.2627 1.3205 -4.5771 8.0810 0.0000 0.0000 0.0000 -83.8752 -3.7241 63.5944 44.0052 -50.2717 -21.4709 -0.0000 0.0000 -7.4298 5.7758 11.0043 1.1061 -7.1250 0.0000 -0.0000 -18.6302 40.3150 2.2413 0.0000 0.0000 0.0000 55.3174 -22.7220 77.0189 -43.7925 50.1630 -21.3074 0.0000 0.0000 15.6704 -2.3554 -13.6093 0.5545 7.1250 -0.0000 -0.0000 22.3615 -42.4367 1.4964
0.00 0.00 0.00 -171.6270 -36.1860 -182.1580 0.0000 0.0000 0.0000 -2.0376 -15.5688 -36.5876 5.6731 14.1039 43.6550 -0.4619 -12.7303 -0.0293 0.2570 3.2616 9.0079 0.0000 0.0000 0.0000 27.3512 5.5790 -14.3829 -5.5422 -13.9696 43.1157 -0.9979 8.9344 -17.9786 -1.3700 -7.4076 20.9287 2.7444 4.4259 0.2434 -1.4660 5.8763 1.7362 -2.9218 2.9841 2.0795 2.4882 -3.2918 -9.3854 5.6274 -6.7312 19.1442 0.7661 -2.7773 7.5738 0.0000 0.0000 0.0000 -80.6631 5.3859 55.5319 48.2444 -52.2624 -24.7789 -0.0000 0.0000 -8.1971 12.0478 10.5054 2.2285 -7.1250 0.0000 -0.0000 -13.1670 40.3657 1.5348 0.0000 0.0000 0.0000 33.3059 2.7755 88.0451 -42.3314 49.3921 -20.1918 0.0000 0.0000 15.7853 11.7465 -8.9967 -1.8624 7.1250 -0.0000 -0.0000 31.9015 -37.0061 7.2028
0.00 0.00 0.00 -171.5410 -36.9818 -181.5650 0.0000 0.0000 0.0000 -2.1436 -14.7549 -40.2417 10.5068 17.6851 61.1690 -0.5427 -13.4135 1.1040 0.1094 2.1330 5.8734 0.0000 0.0000 0.0000 28.9675 6.2759 -18.0203 -5.1125 -13.5093 41.3063 -1.1851 4.2117 -19.6122 -2.0018 -8.8697 25.3887 3.1822 4.7829 0.8732 -2.1494 6.3553 2.0586 -3.8869 3.2393 2.2250 4.3814 -2.0074 -9.8159 4.7291 -4.9587 18.2003 0.3321 -1.8690 7.2470 0.0000 -0.0000 0.0000 -81.4686 11.5696 49.0328 50.4545 -53.1772 -26.5375 -0.0000 0.0000 -7.2460 20.8359 8.6135 3.2623 -7.1250 0.0000 -0.0000 -5.2585 39.1348 0.7624 0.0000 -0.0000 0.0000 24.2957 15.3265 84.9706 -40.7148 48.4877 -18.9728 0.0000 0.0000 16.4436 16.2269 -7.0033 -2.0323 7.1250 -0.0000 -0.0000 34.3403 -34.8627 10.1462
0.00 0.00 0.00 -172.3280 -39.7287 -179.1550 0.0000 0.0000 0.0000 -2.3210 -15.8570 -36.1262 16.1280 19.6367 78.6129 0.1879 -9.7593 16.6717 0.2036 2.9055 8.0159 0.0000 0.0000 0.0000 27.4859 10.5562 -23.9405 -4.1305 -12.3320 36.9168 -0.6874 2.0691 -15.0945 -1.6221 -8.0301 22.8055 3.2466 4.0377 0.8888 -2.6406 5.3694 1.7756 -4.4712 2.7432 1.8861 6.9959 0.0214 -10.0710 1.8364 -1.9687 17.7521 -0.7581 -0.4862 7.0833 -0.0000 0.0000 0.0000 -84.7323 21.3363 38.9452 50.6708 -53.2625 -26.7108 -0.0000 0.0000 -11.2021 27.7269 9.0729 4.7381 -7.1250 0.0000 -0.0000 0.7026 40.2052 -0.0831 -0.0000 0.0000 0.0000 9.3006 28.7765 70.6442 -43.4246 49.9729 -21.0254 0.0000 0.0000 19.1197 17.9232 -4.5358 -1.4652 7.1250 -0.0000 -0.0000 34.5589 -32.5610 12.6389
